<svg width="129" height="63" viewBox="0 0 129 63" fill="none" xmlns="http://www.w3.org/2000/svg">
<path d="M23.121 31.9207C23.5162 31.9207 23.8202 32.1014 24.033 32.4629C24.2762 32.8243 24.3978 33.3213 24.3978 33.9538C24.3978 35.1586 24.109 36.0924 23.5314 36.755C22.2241 38.3514 20.7953 39.6617 19.2449 40.6857C17.6945 41.7098 15.9161 42.2219 13.9097 42.2219C7.70806 42.2219 4.60724 37.8996 4.60724 29.255C4.60724 27.9297 4.65284 26.5894 4.74404 25.2339H2.96563C2.05362 25.2339 1.43042 25.0683 1.09602 24.737C0.792016 24.4056 0.640015 23.8785 0.640015 23.1556C0.640015 21.4689 1.32402 20.6255 2.69203 20.6255H5.29124C5.80805 17.3123 6.59845 14.2851 7.66246 11.5442C8.72647 8.80322 10.0033 6.61949 11.4929 4.99298C13.0129 3.36648 14.6393 2.55322 16.3721 2.55322C17.6489 2.55322 18.6521 3.11045 19.3817 4.22491C20.1113 5.33937 20.4761 6.73997 20.4761 8.42672C20.4761 13.0954 18.5001 17.1617 14.5481 20.6255H19.6553C20.1417 20.6255 20.4913 20.7309 20.7041 20.9418C20.9169 21.1526 21.0233 21.5442 21.0233 22.1165C21.0233 24.1948 19.3057 25.2339 15.8705 25.2339H10.3073C10.2465 26.74 10.2161 27.9147 10.2161 28.758C10.2161 31.8906 10.5809 34.0894 11.3105 35.3544C12.0705 36.6195 13.2561 37.252 14.8673 37.252C16.1745 37.252 17.3297 36.8604 18.3329 36.0773C19.3361 35.2942 20.5217 34.1195 21.8897 32.5532C22.2546 32.1315 22.665 31.9207 23.121 31.9207ZM15.1409 6.89057C14.6849 6.89057 14.1681 7.46286 13.5905 8.60744C13.0433 9.7219 12.5113 11.2882 11.9945 13.3062C11.5081 15.2942 11.0977 17.508 10.7633 19.9478C12.5569 18.4117 13.8945 16.6948 14.7761 14.7972C15.6881 12.8695 16.1441 11.1225 16.1441 9.55623C16.1441 7.77913 15.8097 6.89057 15.1409 6.89057Z" fill="#1A1A1A"/>
<path d="M23.9225 42.2219C22.7673 42.2219 21.9465 41.6195 21.4601 40.4147C21.0041 39.2098 20.7761 37.2821 20.7761 34.6315C20.7761 30.7159 21.3385 26.996 22.4633 23.4719C22.7369 22.5984 23.1777 21.9659 23.7857 21.5743C24.4241 21.1526 25.3057 20.9418 26.4305 20.9418C27.0385 20.9418 27.4641 21.0171 27.7073 21.1677C27.9505 21.3183 28.0721 21.6044 28.0721 22.0261C28.0721 22.508 27.8441 23.5924 27.3881 25.2791C27.0841 26.4839 26.8409 27.5382 26.6585 28.4418C26.4761 29.3454 26.3241 30.4598 26.2025 31.7851C27.2057 29.1948 28.3305 27.0864 29.577 25.4598C30.8234 23.8333 32.0394 22.6737 33.225 21.9809C34.441 21.2882 35.5506 20.9418 36.5538 20.9418C38.5298 20.9418 39.5178 21.9207 39.5178 23.8785C39.5178 24.2701 39.381 25.2189 39.1074 26.7249C38.8642 27.9297 38.7426 28.6827 38.7426 28.9839C38.7426 30.0382 39.1226 30.5653 39.8826 30.5653C40.7338 30.5653 41.8282 29.9026 43.1658 28.5773C43.561 28.1857 43.9715 27.99 44.3971 27.99C44.7923 27.99 45.0963 28.1707 45.3091 28.5321C45.5523 28.8635 45.6739 29.3153 45.6739 29.8876C45.6739 31.002 45.3699 31.8755 44.7619 32.508C43.9106 33.3815 42.9074 34.1345 41.7522 34.7671C40.6274 35.3695 39.4266 35.6707 38.1498 35.6707C36.5386 35.6707 35.3074 35.2641 34.4562 34.4508C33.6354 33.6376 33.225 32.5382 33.225 31.1526C33.225 30.7008 33.2706 30.249 33.3618 29.7972C33.4226 29.1948 33.453 28.7882 33.453 28.5773C33.453 28.0954 33.2858 27.8544 32.9514 27.8544C32.4954 27.8544 31.8874 28.3665 31.1274 29.3906C30.3978 30.3845 29.6682 31.7098 28.9386 33.3665C28.209 35.0231 27.6161 36.7701 27.1601 38.6074C26.8257 40.0231 26.4305 40.987 25.9745 41.499C25.5489 41.9809 24.8649 42.2219 23.9225 42.2219Z" fill="#1A1A1A"/>
<path d="M61.7743 31.9207C62.1695 31.9207 62.4735 32.1014 62.6863 32.4629C62.9295 32.8243 63.0511 33.3213 63.0511 33.9538C63.0511 35.1586 62.7623 36.0924 62.1847 36.755C61.0599 38.1104 59.4639 39.3604 57.3967 40.505C55.3599 41.6496 53.1711 42.2219 50.8303 42.2219C47.6382 42.2219 45.1606 41.3635 43.3974 39.6466C41.6342 37.9297 40.7526 35.5803 40.7526 32.5984C40.7526 30.5201 41.1934 28.5924 42.075 26.8153C42.9566 25.008 44.1726 23.5773 45.723 22.5231C47.3038 21.4689 49.0822 20.9418 51.0583 20.9418C52.8215 20.9418 54.2351 21.4689 55.2991 22.5231C56.3631 23.5472 56.8951 24.9478 56.8951 26.7249C56.8951 28.8032 56.1351 30.5954 54.6151 32.1014C53.1255 33.5773 50.5871 34.752 46.9998 35.6255C47.7598 37.0111 49.2038 37.7038 51.3319 37.7038C52.6999 37.7038 54.2503 37.237 55.9831 36.3032C57.7463 35.3394 59.2663 34.0894 60.5431 32.5532C60.9079 32.1315 61.3183 31.9207 61.7743 31.9207ZM50.283 25.3695C49.1582 25.3695 48.2006 26.0171 47.4102 27.3123C46.6502 28.6074 46.2702 30.1737 46.2702 32.0111V32.1014C48.0638 31.6797 49.4774 31.0472 50.511 30.2038C51.5447 29.3604 52.0615 28.3815 52.0615 27.2671C52.0615 26.6948 51.8943 26.243 51.5599 25.9117C51.2559 25.5502 50.8302 25.3695 50.283 25.3695Z" fill="#1A1A1A"/>
<path d="M79.676 31.9207C80.0712 31.9207 80.3752 32.1014 80.588 32.4629C80.8312 32.8243 80.9528 33.3213 80.9528 33.9538C80.9528 35.1586 80.664 36.0924 80.0864 36.755C78.9616 38.1104 77.3656 39.3604 75.2984 40.505C73.2616 41.6496 71.0727 42.2219 68.7319 42.2219C65.5399 42.2219 63.0623 41.3635 61.2991 39.6466C59.5359 37.9297 58.6543 35.5803 58.6543 32.5984C58.6543 30.5201 59.0951 28.5924 59.9767 26.8153C60.8583 25.008 62.0743 23.5773 63.6247 22.5231C65.2055 21.4689 66.9839 20.9418 68.9599 20.9418C70.7231 20.9418 72.1367 21.4689 73.2008 22.5231C74.2648 23.5472 74.7968 24.9478 74.7968 26.7249C74.7968 28.8032 74.0368 30.5954 72.5168 32.1014C71.0271 33.5773 68.4887 34.752 64.9015 35.6255C65.6615 37.0111 67.1055 37.7038 69.2335 37.7038C70.6015 37.7038 72.1519 37.237 73.8848 36.3032C75.648 35.3394 77.168 34.0894 78.4448 32.5532C78.8096 32.1315 79.22 31.9207 79.676 31.9207ZM68.1847 25.3695C67.0599 25.3695 66.1023 26.0171 65.3119 27.3123C64.5519 28.6074 64.1719 30.1737 64.1719 32.0111V32.1014C65.9655 31.6797 67.3791 31.0472 68.4127 30.2038C69.4463 29.3604 69.9631 28.3815 69.9631 27.2671C69.9631 26.6948 69.7959 26.243 69.4615 25.9117C69.1575 25.5502 68.7319 25.3695 68.1847 25.3695Z" fill="#1A1A1A"/>
<path d="M83.2136 17.9598C81.9368 17.9598 80.9792 17.6737 80.3408 17.1014C79.7024 16.499 79.3832 15.6707 79.3832 14.6165C79.3832 13.5623 79.7936 12.6888 80.6144 11.996C81.4656 11.2731 82.5144 10.9117 83.7608 10.9117C84.8856 10.9117 85.7976 11.1827 86.4968 11.7249C87.196 12.2671 87.5456 13.0351 87.5456 14.0291C87.5456 15.2339 87.1504 16.1978 86.36 16.9207C85.5696 17.6135 84.5208 17.9598 83.2136 17.9598ZM82.8488 42.2219C80.8728 42.2219 79.4288 41.5291 78.5168 40.1436C77.6351 38.758 77.1943 36.9207 77.1943 34.6315C77.1943 33.2761 77.3615 31.5442 77.6959 29.4357C78.0607 27.2972 78.5167 25.3092 79.0639 23.4719C79.3376 22.508 79.7024 21.8454 80.1584 21.4839C80.6144 21.1225 81.344 20.9418 82.3472 20.9418C83.8976 20.9418 84.6728 21.4538 84.6728 22.4779C84.6728 23.2309 84.384 24.9779 83.8064 27.7189C83.0768 31.0321 82.712 33.2761 82.712 34.4508C82.712 35.3544 82.8336 36.0472 83.0768 36.5291C83.32 37.0111 83.7304 37.252 84.308 37.252C84.8552 37.252 85.5392 36.8755 86.36 36.1225C87.1808 35.3695 88.2752 34.1797 89.6432 32.5532C90.008 32.1315 90.4184 31.9207 90.8744 31.9207C91.2696 31.9207 91.5736 32.1014 91.7864 32.4629C92.0296 32.8243 92.1512 33.3213 92.1512 33.9538C92.1512 35.1586 91.8624 36.0924 91.2848 36.755C88.2752 40.3996 85.4632 42.2219 82.8488 42.2219Z" fill="#1A1A1A"/>
<path d="M91.6995 42.2219C90.5443 42.2219 89.7235 41.6195 89.2371 40.4147C88.7811 39.2098 88.5531 37.2821 88.5531 34.6315C88.5531 30.7159 89.1155 26.996 90.2403 23.4719C90.5139 22.5984 90.9547 21.9659 91.5627 21.5743C92.2011 21.1526 93.0827 20.9418 94.2075 20.9418C94.8155 20.9418 95.2411 21.0171 95.4843 21.1677C95.7275 21.3183 95.8491 21.6044 95.8491 22.0261C95.8491 22.508 95.6211 23.5924 95.1651 25.2791C94.8611 26.4839 94.6179 27.5382 94.4355 28.4418C94.2531 29.3454 94.1011 30.4598 93.9795 31.7851C94.9827 29.1948 96.1075 27.0864 97.3539 25.4598C98.6003 23.8333 99.8164 22.6737 101.002 21.9809C102.218 21.2882 103.328 20.9418 104.331 20.9418C106.307 20.9418 107.295 21.9207 107.295 23.8785C107.295 25.0532 106.96 27.1767 106.292 30.249C105.714 32.8695 105.425 34.6014 105.425 35.4448C105.425 36.6496 105.866 37.252 106.748 37.252C107.356 37.252 108.07 36.8906 108.891 36.1677C109.742 35.4147 110.867 34.2098 112.265 32.5532C112.63 32.1315 113.04 31.9207 113.496 31.9207C113.892 31.9207 114.196 32.1014 114.408 32.4629C114.652 32.8243 114.773 33.3213 114.773 33.9538C114.773 35.1586 114.484 36.0924 113.907 36.755C112.6 38.3514 111.186 39.6617 109.666 40.6857C108.176 41.7098 106.474 42.2219 104.559 42.2219C103.008 42.2219 101.838 41.7851 101.048 40.9117C100.257 40.008 99.862 38.7129 99.862 37.0261C99.862 36.1827 100.075 34.6767 100.5 32.508C100.896 30.6104 101.093 29.3002 101.093 28.5773C101.093 28.0954 100.926 27.8544 100.592 27.8544C100.196 27.8544 99.634 28.3665 98.9044 29.3906C98.2051 30.3845 97.4755 31.7098 96.7155 33.3665C95.9859 35.0231 95.3931 36.7701 94.9371 38.6074C94.6027 40.0231 94.2075 40.987 93.7515 41.499C93.3259 41.9809 92.6419 42.2219 91.6995 42.2219Z" fill="#1A1A1A"/>
<path d="M126.542 22.4327C127.302 22.4327 127.834 22.5532 128.138 22.7942C128.473 23.005 128.64 23.4418 128.64 24.1044C128.64 24.4659 128.625 24.752 128.594 24.9629C128.473 25.8966 128.093 28.3062 127.454 32.1918C126.998 34.8123 126.71 36.5442 126.588 37.3876C125.433 45.1586 123.867 51.2882 121.891 55.7761C119.946 60.2942 117.331 62.5532 114.048 62.5532C112.498 62.5532 111.236 62.0713 110.263 61.1074C109.29 60.1737 108.804 58.9388 108.804 57.4026C108.804 55.2641 109.655 52.9599 111.358 50.49C113.06 48.0502 116.252 45.0382 120.934 41.4538L121.207 39.6918C120.69 40.505 120.006 41.1376 119.155 41.5894C118.334 42.011 117.514 42.2219 116.693 42.2219C114.808 42.2219 113.303 41.5442 112.178 40.1888C111.054 38.8333 110.491 37.0562 110.491 34.8574C110.491 32.4478 111.054 30.1737 112.178 28.0351C113.303 25.8665 114.793 24.1345 116.647 22.8394C118.532 21.5141 120.523 20.8514 122.621 20.8514C123.29 20.8514 123.73 20.987 123.943 21.258C124.186 21.499 124.384 21.9508 124.536 22.6135C125.114 22.493 125.782 22.4327 126.542 22.4327ZM118.334 37.6586C119.034 37.6586 119.702 37.237 120.341 36.3936C120.979 35.5502 121.435 34.3454 121.709 32.7791L123.168 25.0532C121.922 25.0833 120.766 25.5653 119.702 26.499C118.638 27.4026 117.787 28.6074 117.149 30.1135C116.51 31.6195 116.191 33.2159 116.191 34.9026C116.191 35.8364 116.374 36.5291 116.738 36.9809C117.134 37.4327 117.666 37.6586 118.334 37.6586ZM114.55 58.1707C115.31 58.1707 116.161 57.2671 117.103 55.4598C118.076 53.6526 119.003 50.7761 119.885 46.8303C117.544 48.8183 115.857 50.6105 114.823 52.2068C113.79 53.8032 113.273 55.2038 113.273 56.4086C113.273 56.9207 113.364 57.3424 113.546 57.6737C113.759 58.005 114.094 58.1707 114.55 58.1707Z" fill="#1A1A1A"/>
</svg>
